<?xml version="1.0" standalone="no"?>
<!DOCTYPE svg PUBLIC "-//W3C//DTD SVG 20010904//EN"
 "http://www.w3.org/TR/2001/REC-SVG-20010904/DTD/svg10.dtd">
<svg version="1.0" xmlns="http://www.w3.org/2000/svg"
 width="1536.000000pt" height="1024.000000pt" viewBox="0 0 1536.000000 1024.000000"
 preserveAspectRatio="xMidYMid meet">

<g transform="translate(0.000000,1024.000000) scale(0.100000,-0.100000)"
fill="#000000" stroke="none">
<path d="M3688 7049 c-64 -9 -233 -72 -261 -97 -15 -13 -22 -14 -35 -4 -31 22
-86 43 -152 59 -81 19 -171 12 -274 -21 -246 -78 -359 -231 -307 -416 21 -72
121 -163 251 -226 122 -60 298 -122 370 -131 27 -3 50 -9 50 -12 0 -4 -33 -12
-72 -20 -167 -29 -318 -98 -398 -180 -97 -101 -140 -218 -140 -386 l-1 -100
-74 -89 c-112 -133 -106 -143 86 -152 l134 -7 45 -37 c53 -44 185 -120 208
-120 43 -1 -20 -18 -123 -34 -60 -10 -148 -24 -195 -32 -47 -7 -150 -23 -230
-34 -80 -11 -203 -29 -274 -40 -71 -11 -133 -20 -137 -20 -5 0 -9 -4 -9 -9 0
-32 336 -14 713 39 314 44 838 123 1167 175 313 50 738 105 866 112 114 6 154
-2 154 -33 0 -35 -47 -102 -128 -181 l-87 -85 58 5 c111 11 221 78 262 160 29
60 32 118 7 166 -39 77 -122 99 -309 82 -143 -13 -625 -84 -793 -117 -57 -11
-24 9 85 51 124 48 332 150 428 212 146 93 249 223 277 349 14 63 14 171 0
225 -29 110 -113 225 -225 307 l-30 22 25 20 c52 42 166 91 250 106 47 9 109
20 138 26 40 7 55 15 61 31 22 60 -26 85 -132 68 -156 -26 -285 -88 -368 -179
l-48 -53 -30 16 c-17 8 -51 18 -76 22 -25 3 -45 9 -45 13 0 4 20 33 44 65 55
70 143 137 218 165 60 22 72 32 82 67 9 29 -24 63 -61 63 -45 0 -132 -57 -214
-139 -71 -72 -159 -188 -159 -210 0 -6 -19 -15 -42 -21 -75 -18 -241 -73 -295
-97 -29 -12 -53 -21 -53 -18 0 2 20 37 45 77 71 116 108 226 109 328 1 73 -3
93 -25 135 -54 107 -176 156 -331 134z m209 -105 c51 -29 73 -67 80 -138 9
-89 -72 -296 -165 -418 -36 -48 -95 -82 -199 -113 -48 -15 -93 -20 -93 -10 0
3 10 40 22 82 18 63 23 103 22 208 0 147 -16 207 -79 289 l-33 44 51 25 c57
27 174 64 222 69 50 5 127 -12 172 -38z m-599 -38 c84 -43 137 -94 171 -165
24 -52 26 -66 26 -186 -1 -114 -4 -141 -29 -220 -15 -49 -31 -93 -34 -97 -20
-19 -390 116 -547 199 -129 69 -194 195 -151 296 15 37 98 117 147 142 84 44
163 64 257 64 86 1 97 -1 160 -33z m1130 -497 c42 -11 101 -34 129 -52 66 -39
152 -126 169 -169 46 -121 46 -123 42 -213 -4 -78 -9 -99 -38 -155 -63 -125
-214 -246 -449 -362 l-63 -32 -19 25 c-104 131 -188 355 -233 616 -12 73 -25
135 -29 139 -3 4 -51 -10 -107 -31 l-100 -38 0 -37 c0 -89 55 -327 106 -464
34 -89 88 -198 125 -253 16 -23 29 -46 29 -51 0 -10 -132 -72 -154 -72 -14 0
-70 89 -124 195 -45 90 -117 324 -148 481 -15 76 -28 141 -30 143 -3 3 -77
-20 -161 -51 -62 -23 -62 -23 -37 -162 32 -182 114 -416 201 -567 23 -42 43
-78 43 -81 0 -3 -32 -14 -70 -23 -84 -21 -88 -18 -146 77 -97 159 -195 470
-206 651 -2 29 -6 37 -21 37 -32 0 -121 -48 -157 -85 -32 -33 -34 -39 -32 -98
4 -119 81 -352 162 -497 59 -103 55 -108 -45 -60 -168 80 -273 257 -263 444 4
70 10 94 46 168 75 156 164 209 477 287 233 59 347 95 581 185 150 58 322 111
331 102 2 -1 -2 -17 -8 -35 -14 -40 -2 -56 34 -47 19 4 29 18 42 56 10 29 23
50 31 50 8 0 49 -9 92 -21z"/>
<path d="M4565 6165 c-36 -35 -35 -105 1 -134 15 -12 35 -21 45 -21 58 0 82
108 34 155 -13 14 -31 25 -40 25 -9 0 -27 -11 -40 -25z"/>
<path d="M4201 6154 c-32 -40 -29 -106 5 -133 54 -43 104 -12 104 64 0 81 -67
123 -109 69z"/>
<path d="M4320 5912 c0 -70 76 -126 157 -115 65 9 112 76 92 131 -12 32 -33
27 -52 -13 -18 -38 -54 -58 -96 -53 -17 2 -31 15 -45 43 -12 22 -29 41 -39 43
-14 3 -17 -4 -17 -36z"/>
<path d="M4156 6778 c12 -93 17 -103 52 -106 33 -3 92 31 92 54 0 21 -115 104
-145 104 -3 0 -3 -24 1 -52z"/>
<path d="M2435 6647 c-182 -125 -366 -340 -479 -557 -97 -187 -157 -405 -171
-625 -7 -103 7 -268 26 -317 l11 -27 49 24 49 25 -6 148 c-8 184 6 317 52 476
83 289 226 497 511 746 50 43 52 47 57 108 3 34 2 62 -2 62 -4 -1 -47 -29 -97
-63z"/>
<path d="M2591 6285 c-14 -49 -31 -67 -81 -89 l-35 -15 30 -6 c49 -10 75 -37
90 -90 11 -42 13 -45 14 -20 2 47 36 94 83 114 l43 18 -41 6 c-49 8 -64 23
-79 82 l-11 44 -13 -44z"/>
<path d="M4955 5914 c-9 -87 -2 -212 16 -328 11 -74 14 -79 43 -91 17 -7 48
-15 69 -19 37 -7 37 -7 37 26 0 61 -48 243 -95 366 -27 67 -51 122 -56 122 -4
0 -11 -34 -14 -76z"/>
<path d="M2325 5930 c-16 -72 -52 -127 -98 -149 -24 -12 -54 -21 -68 -22 l-24
-1 25 -8 c14 -5 44 -14 67 -20 34 -9 47 -19 67 -53 13 -23 28 -60 32 -82 l7
-40 18 65 c19 72 61 120 104 120 41 0 36 15 -13 37 -52 24 -75 57 -96 139
l-13 49 -8 -35z"/>
<path d="M5927 5769 c-37 -21 -47 -71 -46 -216 0 -76 4 -189 8 -252 7 -107 9
-115 35 -137 29 -25 74 -31 106 -14 26 14 40 70 40 158 l0 72 70 0 70 0 0 -49
c0 -79 18 -154 41 -173 24 -20 70 -23 101 -7 40 21 48 67 48 261 -1 294 -18
360 -95 366 -79 7 -105 -31 -105 -154 l0 -74 -64 0 -64 0 -4 91 c-3 85 -5 92
-31 115 -30 26 -78 31 -110 13z"/>
<path d="M7690 5755 c-22 -24 -23 -28 -17 -166 l5 -142 -30 54 c-16 30 -43 81
-60 114 -65 128 -128 174 -198 145 -58 -24 -62 -44 -58 -322 l3 -250 28 -24
c34 -29 76 -31 108 -5 19 15 25 32 29 87 4 38 3 102 -1 143 -5 41 -7 76 -5 78
2 2 23 -31 46 -74 83 -150 120 -203 161 -223 38 -20 83 -25 114 -14 49 19 67
180 46 412 -16 176 -35 212 -114 212 -23 0 -41 -8 -57 -25z"/>
<path d="M9565 5773 c-34 -9 -63 -33 -76 -66 -16 -36 -20 -413 -6 -480 10 -45
42 -69 93 -69 57 0 76 26 82 112 l5 72 35 -6 c41 -6 77 -37 102 -87 11 -20 31
-50 45 -68 22 -26 34 -31 70 -31 76 0 105 62 66 145 -21 46 -64 89 -103 104
-31 12 -36 26 -13 34 8 4 28 25 45 48 25 35 30 51 30 98 0 137 -99 203 -295
200 -33 -1 -69 -4 -80 -6z m183 -169 c43 -30 18 -77 -49 -89 -33 -6 -37 -4
-43 18 -3 14 -4 33 -1 41 3 9 7 23 10 31 6 20 54 19 83 -1z"/>
<path d="M11505 5765 c-22 -8 -41 -15 -42 -15 0 0 -6 -14 -12 -31 -8 -23 -7
-39 3 -64 18 -42 27 -47 95 -54 l56 -6 -3 -105 c-4 -124 11 -279 30 -309 32
-52 149 -49 184 4 19 29 20 192 3 323 -6 45 -8 89 -5 97 4 10 20 15 51 15 62
0 102 22 113 63 22 82 -14 96 -253 96 -132 0 -191 -4 -220 -14z"/>
<path d="M12298 5770 c-73 -9 -104 -30 -117 -77 -14 -49 -14 -319 -1 -401 20
-122 47 -137 235 -136 173 0 215 21 215 107 0 54 -18 61 -154 67 l-121 5 0 35
c0 28 4 35 20 36 11 0 41 1 68 2 58 2 87 27 87 75 0 52 -25 68 -96 62 -73 -5
-86 2 -82 46 l3 34 98 5 c89 4 101 7 118 29 34 42 20 92 -32 110 -35 12 -151
13 -241 1z"/>
<path d="M6810 5753 c-26 -13 -43 -34 -64 -78 -37 -76 -156 -421 -156 -453 0
-34 52 -82 88 -82 43 0 70 27 90 90 l17 55 80 0 80 0 17 -55 c10 -30 27 -63
39 -72 30 -25 84 -23 110 3 31 31 22 90 -44 289 -63 193 -100 275 -132 296
-37 24 -86 27 -125 7z m99 -295 c1 -14 -7 -18 -39 -18 -47 0 -49 8 -19 77 l21
48 18 -45 c11 -25 19 -53 19 -62z"/>
<path d="M8124 5752 c-25 -16 -32 -29 -37 -67 -9 -63 -8 -277 2 -389 7 -83 10
-91 40 -118 27 -24 39 -28 94 -28 215 0 347 124 347 325 0 125 -44 207 -141
260 -49 27 -64 30 -164 33 -95 3 -114 0 -141 -16z m211 -158 c26 -10 45 -60
45 -120 0 -51 -3 -59 -35 -91 -58 -58 -69 -46 -75 78 -3 59 -4 114 -2 123 4
16 37 21 67 10z"/>
<path d="M8923 5740 c-105 -53 -163 -153 -163 -279 0 -188 110 -312 278 -312
108 0 203 45 238 113 19 37 13 94 -13 114 -28 21 -84 16 -128 -11 -46 -29
-109 -33 -142 -10 -12 8 -27 31 -33 51 -40 119 69 227 165 164 87 -57 169 25
120 120 -26 50 -78 74 -174 78 -80 3 -90 2 -148 -28z"/>
<path d="M10384 5756 c-56 -25 -92 -98 -183 -378 -54 -166 -54 -196 0 -223 65
-34 110 -9 139 75 18 53 20 55 62 62 24 5 54 6 68 4 14 -2 31 -5 38 -5 6 -1
12 -7 12 -13 0 -7 5 -30 11 -52 23 -82 94 -112 146 -60 23 23 25 30 19 77 -9
67 -120 399 -153 455 -37 65 -95 85 -159 58z m80 -243 c23 -68 22 -73 -24 -73
-22 0 -40 3 -40 6 0 20 33 114 40 114 4 0 15 -21 24 -47z"/>
<path d="M10897 5746 l-27 -25 0 -168 c0 -220 14 -340 42 -370 41 -44 128 -37
145 11 4 11 8 62 8 111 l0 90 75 7 c83 7 110 26 110 78 0 42 -24 54 -119 60
l-86 5 0 35 0 35 97 1 c120 1 148 15 148 73 0 69 -17 76 -204 79 -161 3 -162
3 -189 -22z"/>
<path d="M12895 5756 c-79 -30 -90 -73 -83 -325 5 -187 17 -222 87 -260 34
-19 58 -24 113 -23 125 0 232 78 279 201 17 45 20 71 17 136 -7 124 -63 213
-160 255 -68 29 -196 37 -253 16z m194 -190 c20 -21 31 -95 20 -138 -16 -64
-90 -103 -103 -55 -8 30 -8 181 0 202 5 13 14 15 38 11 17 -4 37 -13 45 -20z"/>
<path d="M2460 5269 c-36 -6 -133 -41 -148 -54 -2 -2 5 -13 15 -24 22 -27 57
-27 128 1 60 23 73 38 59 67 -7 14 -17 16 -54 10z"/>
<path d="M2122 5171 c-68 -33 -86 -56 -58 -77 15 -10 27 -9 74 7 78 27 104 46
100 72 -5 33 -43 32 -116 -2z"/>
<path d="M1935 5059 c-19 -10 -65 -68 -93 -118 -16 -26 -4 -41 32 -41 21 0 81
59 109 108 16 28 16 32 1 46 -18 18 -21 18 -49 5z"/>
<path d="M4070 4978 c-86 -9 -109 -24 -88 -57 12 -21 20 -22 112 -20 81 2 103
6 118 21 10 10 18 22 18 27 0 27 -66 39 -160 29z"/>
<path d="M3765 4922 c-70 -24 -80 -30 -80 -51 0 -42 24 -47 115 -20 106 30
118 39 102 73 -15 33 -34 33 -137 -2z"/>
<path d="M4294 4925 c-4 -9 5 -32 18 -53 49 -73 58 -92 58 -114 0 -47 12 -68
36 -68 31 0 56 39 62 99 4 43 1 51 -29 86 -50 57 -132 85 -145 50z"/>
<path d="M4973 4919 c-76 -9 -79 -11 -86 -47 -10 -49 -93 -213 -159 -312 -77
-118 -286 -329 -411 -417 -154 -108 -365 -198 -557 -238 -189 -39 -435 -39
-624 1 -39 8 -87 17 -106 20 -61 10 -222 74 -328 129 -145 77 -240 144 -342
241 -87 82 -90 84 -139 84 -58 0 -81 -7 -81 -25 0 -21 167 -185 250 -247 340
-250 683 -358 1100 -345 406 12 733 137 1046 398 185 154 369 405 461 629 24
59 49 146 40 139 -1 -1 -30 -5 -64 -10z"/>
<path d="M3485 4822 c-72 -30 -91 -42 -93 -59 -2 -16 4 -26 21 -34 20 -9 37
-6 98 20 104 44 105 45 94 77 -6 15 -14 29 -20 30 -5 1 -50 -14 -100 -34z"/>
<path d="M1831 4809 c-20 -8 -23 -14 -17 -41 8 -39 62 -125 87 -138 27 -15 38
-12 50 14 10 21 6 32 -25 83 -20 32 -36 63 -36 70 0 8 -25 25 -33 22 -1 0 -13
-5 -26 -10z"/>
<path d="M3216 4695 c-100 -44 -109 -51 -93 -76 19 -30 31 -30 113 2 95 37
106 45 102 78 -4 37 -30 36 -122 -4z"/>
<path d="M4175 4633 c-44 -13 -84 -29 -89 -33 -5 -5 -5 -21 -2 -35 7 -26 9
-27 60 -23 29 2 75 15 102 29 42 21 49 28 49 54 0 39 -18 41 -120 8z"/>
<path d="M2030 4611 c-21 -17 -22 -21 -10 -36 34 -41 159 -92 194 -79 9 3 16
16 16 28 0 21 -22 34 -170 103 -3 1 -16 -6 -30 -16z"/>
<path d="M2935 4585 c-83 -34 -103 -58 -71 -84 12 -10 29 -8 87 10 39 12 81
30 92 40 19 14 20 20 9 43 -6 14 -17 26 -24 25 -7 0 -49 -16 -93 -34z"/>
<path d="M3915 4568 c-90 -15 -136 -30 -146 -50 -25 -47 48 -63 149 -33 113
34 111 102 -3 83z"/>
<path d="M2650 4523 c-66 -17 -74 -24 -65 -53 7 -21 12 -22 70 -18 82 7 119
25 123 61 3 25 1 27 -35 26 -21 0 -63 -7 -93 -16z"/>
<path d="M2303 4504 c-13 -34 54 -63 142 -64 55 0 68 10 56 42 -11 29 -42 38
-133 38 -44 0 -60 -4 -65 -16z"/>
<path d="M3635 4513 c-47 -12 -112 -45 -124 -65 -11 -18 -10 -23 8 -41 19 -20
22 -20 53 -4 18 9 54 25 81 36 49 21 54 29 37 62 -11 19 -18 21 -55 12z"/>
<path d="M3375 4378 c-53 -42 -71 -136 -39 -204 22 -46 34 -51 55 -26 13 17
15 30 8 59 -9 42 -5 70 18 125 15 36 13 68 -5 68 -5 0 -22 -10 -37 -22z"/>
<path d="M3010 4328 c0 -43 -36 -86 -82 -99 -35 -10 -39 -13 -23 -19 82 -27
114 -56 116 -107 0 -10 7 0 15 22 19 51 48 81 87 90 l32 7 -48 15 c-49 15 -77
48 -77 93 0 11 -4 20 -10 20 -5 0 -10 -10 -10 -22z"/>
<path d="M3440 4091 c-20 -16 -22 -21 -11 -35 17 -20 115 -49 140 -41 10 3 26
14 36 25 25 28 6 47 -53 53 -26 2 -56 7 -67 11 -12 4 -29 -1 -45 -13z"/>
</g>
</svg>
